<svg width="21" height="24" viewBox="0 0 21 24" fill="none" xmlns="http://www.w3.org/2000/svg">
<g clip-path="url(#clip0_752_2286)">
<path d="M7.6333 3.14521C7.63967 2.21152 7.65452 1.27783 7.64497 0.344134C7.64179 0.0826112 7.7012 0.00582367 7.96112 0.00248508C9.3668 -0.013095 10.7714 0.00582372 12.1251 0.453195C16.7623 1.98449 19.5928 5.25965 20.3598 10.2931C21.3433 16.7566 17.0445 22.7917 10.8605 23.8445C9.85269 24.0158 8.8406 23.9902 7.82744 23.9991C7.62694 24.0014 7.6524 23.8723 7.6524 23.7432C7.6524 22.7906 7.6524 21.838 7.6524 20.8854C7.7309 20.8931 7.80941 20.8987 7.88792 20.9087C10.7141 21.2615 13.1797 20.4291 15.1678 18.2935C18.5977 14.6099 18.4396 8.90316 14.8548 5.38318C13.6942 4.2436 12.3172 3.52915 10.7619 3.19084C10.6494 3.16635 10.5083 3.09847 10.5104 3.33106C10.5189 4.29257 10.5221 5.25408 10.5264 6.21671C10.5211 6.29906 10.5126 6.38253 10.5126 6.46488C10.5126 10.2364 10.5126 14.0079 10.5126 17.7794C9.5567 18.0754 8.59978 18.0687 7.64073 17.7949C7.64391 17.7304 7.65134 17.6658 7.65134 17.6013C7.65134 13.8765 7.65134 10.1518 7.65134 6.42704C7.65134 6.35359 7.64179 6.28014 7.63754 6.2067C7.69377 5.52674 7.65452 4.84455 7.65982 4.16459C7.66194 3.82517 7.69589 3.48352 7.63436 3.14521H7.6333Z" fill="#ADADAD"/>
<path d="M10.5266 6.21715C10.5213 5.25563 10.5192 4.29412 10.5107 3.33149C10.5086 3.0989 10.6507 3.16679 10.7621 3.19127C12.3174 3.52958 13.6944 4.24404 14.8551 5.38361C18.4398 8.9036 18.5979 14.6104 15.168 18.2939C13.1799 20.4284 10.7144 21.2619 7.88815 20.9092C7.80965 20.8991 7.73114 20.8936 7.65263 20.8858C6.65327 20.6788 5.69952 20.3405 4.80837 19.8119C1.7339 17.9879 0.064048 14.3377 0.598739 10.5929C1.11433 6.98725 3.80477 3.99253 7.21873 3.22577C7.35664 3.19461 7.49562 3.17124 7.63354 3.14453C7.69507 3.48284 7.66112 3.82449 7.659 4.16391C7.65369 4.84499 7.69401 5.52606 7.63672 6.20602C7.57625 6.22048 7.51578 6.23161 7.45637 6.24942C3.9692 7.31332 2.29299 11.54 4.05195 14.873C4.8455 16.3765 6.03901 17.368 7.64096 17.7931C8.60001 18.0669 9.55694 18.0736 10.5128 17.7776C10.6316 17.7887 10.7367 17.7331 10.8449 17.6963C13.4854 16.7916 15.115 14.025 14.7182 11.1249C14.3967 8.7745 12.6463 6.72461 10.5277 6.21603L10.5266 6.21715Z" fill="#E2E8F6"/>
</g>
<defs>
<clipPath id="clip0_752_2286">
<rect width="20" height="24" fill="white" transform="translate(0.5)"/>
</clipPath>
</defs>
</svg>
