<svg height="18" viewBox="0 0 24 24" class="sc-hBUSln fudfYD" xmlns="http://www.w3.org/2000/svg">
    <path fill="white" d="M11.8074 5.91458V12.2608L8.73707 14.5553H9.72592V19.503C4.84097 19.5958 0.196722 21.4267 0.196722 21.4267C2.75562 19.5727 6.94198 18.7383 6.94198 18.7383L6.05814 10.4184L5.64002 10.511V10.0088L11.8074 5.91458ZM11.8074 2.65574V5.39394L5.95312 9.43413L5.67589 7.43697L6.87805 6.53825L7.21725 8.11299L8.08087 7.49074V5.73201L9.56807 4.42632L9.86095 6.29248L10.8479 5.51681V3.47364L11.8074 2.65574Z"></path>
    <path fill="white" d="M12.1987 5.91458L18.3666 10.0088V10.511L17.9479 10.4184L17.0634 18.7383C17.0634 18.7383 21.2504 19.5727 23.8093 21.4267C23.8093 21.4267 19.1651 19.5958 14.2801 19.503V14.5553H15.269L12.1987 12.2608V5.91458ZM12.1987 2.65574L13.1581 3.47364V5.51681L14.1444 6.29248L14.4373 4.42632L15.9252 5.73201V7.49074L16.7888 8.11299L17.128 6.53825L18.3301 7.43697L18.0522 9.43413L12.1987 5.39394V2.65574Z"></path>
    <path fill="white" d="M18.2978 17.2548C18.4415 17.2548 18.5643 17.3057 18.6661 17.4074C18.7678 17.5092 18.8187 17.6323 18.8187 17.7766C18.8187 17.921 18.7678 18.0439 18.6661 18.1455C18.5643 18.2469 18.4415 18.2977 18.2978 18.2977C18.1534 18.2977 18.0303 18.2469 17.9286 18.1455C17.8268 18.0439 17.7759 17.921 17.7759 17.7766C17.7759 17.6323 17.8268 17.5092 17.9286 17.4074C18.0303 17.3057 18.1534 17.2548 18.2978 17.2548ZM18.2985 17.3366C18.1768 17.3366 18.0729 17.3795 17.9868 17.4653C17.9007 17.5512 17.8576 17.6549 17.8576 17.7766C17.8576 17.8979 17.9007 18.0014 17.9868 18.0871C18.0729 18.173 18.1768 18.216 18.2985 18.216C18.4198 18.216 18.5231 18.173 18.6087 18.0871C18.6942 18.0014 18.737 17.8979 18.737 17.7766C18.737 17.6549 18.6942 17.5512 18.6087 17.4653C18.5231 17.3795 18.4198 17.3366 18.2985 17.3366ZM18.2804 17.4392C18.3574 17.4392 18.417 17.4554 18.4591 17.4879C18.5012 17.5203 18.5221 17.5644 18.5221 17.6201C18.5221 17.6654 18.5073 17.704 18.4778 17.7362C18.4482 17.7684 18.4071 17.79 18.3543 17.801V17.8037C18.3908 17.8118 18.4273 17.8527 18.4639 17.9263L18.5508 18.1028H18.4308L18.3587 17.9436C18.322 17.8637 18.2826 17.8236 18.2403 17.8236H18.1951V18.1028H18.0933V17.4392H18.2804ZM18.2603 17.5253H18.1951V17.7384H18.2768C18.3685 17.7384 18.4143 17.7027 18.4143 17.6314C18.4143 17.5903 18.402 17.5623 18.3774 17.5475C18.3526 17.5327 18.3137 17.5253 18.2603 17.5253Z"></path>
</svg>
